# xmcd
#
# Track frame offsets:
#	150
#	13170
#	26640
#	39055
#	50325
#	64992
#	81977
#	95772
#	104932
#	121190
#	132750
#	146760
#	162032
#	173890
#	189397
#	205050
#
# Disc length: 2948 seconds
#
# Revision: 1
# Processed by: cddbd v1.5.1PL0 Copyright (c) Steve Scherf et al.
# Submitted via: audiograbber 1.82.02
#
DISCID=de0b8210
DTITLE=Various Artist - Goin Country Disc 2
DYEAR=1900
DGENRE=
TTITLE0=Conway Twitty - Slow Hand
TTITLE1=Loretta Lynn - Coal Miner's Daughter
TTITLE2=Freddy Fender - Wasted Days and Wasted Nights
TTITLE3=Willie Nelson - Mamas Don't Let Your Babies Grow Up To Be Cowboys
TTITLE4=George Jones - He Stopped Loving Her Today
TTITLE5=Johnny Cash - A Boy Named Sue (Live)
TTITLE6=Tanya Tucker - What's Your Mamas Name?
TTITLE7=Charley Pride - Kiss An Angel Good Morning
TTITLE8=Ronnie Milsap - It Was Almost Like a Song
TTITLE9=Johnny Paycheck - Take This Job and Shove It
TTITLE10=Don Williams - Tulsa Time
TTITLE11=Johnny Duncan - Thinkin' Of A Rendezvous
TTITLE12=Oak Ridge Boys - Elvira
TTITLE13=Kris Kristofferson - Why Me
TTITLE14=Johnny Lee - Lookin' For Love
TTITLE15=The Charlie Daniels Band - The Devil Went Down to Georgia
EXTD=
EXTT0=
EXTT1=
EXTT2=
EXTT3=
EXTT4=
EXTT5=
EXTT6=
EXTT7=
EXTT8=
EXTT9=
EXTT10=
EXTT11=
EXTT12=
EXTT13=
EXTT14=
EXTT15=
PLAYORDER=
